<?xml version="1.0" encoding="utf-8"?>
<svg viewBox="1558.300048828125 1280.7000732421875 301.2000732421875 213.9998779296875" width="301.2000732421875" height="213.9998779296875" xmlns="http://www.w3.org/2000/svg"><g transform="matrix(1, 0, 0, 1, 0, 0)">
			<path d="M 1859.499976 1389.699951 A 6.9 6.9 0 0 1 1852.599976 1396.599951 A 6.9 6.9 0 0 1 1845.699975 1389.699951 A 6.9 6.9 0 0 1 1852.599976 1382.799951 A 6.9 6.9 0 0 1 1859.499976 1389.699951 Z" fill="#CCCCCC"/>
			<path d="M 1649.9000244140625 1494.699951171875 L 1634.699951171875 1364.199951171875 L 1627.0999755859375 1432 L 1622.199951171875 1393.300048828125 L 1615.5999755859375 1457.0999755859375 L 1603.4000244140625 1347.4000244140625 L 1594.5 1392 L 1558.300048828125 1392 L 1558.300048828125 1387.300048828125 L 1590.699951171875 1387.300048828125 L 1604.699951171875 1317.4000244140625 L 1615.4000244140625 1413.800048828125 L 1621.699951171875 1352.9000244140625 L 1626.800048828125 1393.0999755859375 L 1634.699951171875 1323.5999755859375 L 1649.800048828125 1454.4000244140625 L 1669.699951171875 1280.699951171875 L 1688.5 1403 L 1694 1387.300048828125 L 1855.9000244140625 1387.300048828125 L 1855.9000244140625 1392 L 1697.300048828125 1392 L 1686.800048828125 1422.0999755859375 L 1670.4000244140625 1315.4000244140625 Z" fill="#CCCCCC"/>
		</g></svg>